<svg width="60" height="60" viewBox="0 0 60 60" fill="none" xmlns="http://www.w3.org/2000/svg">
<path d="M55.4663 24.3878L54.2761 24.1896C53.5065 24.0532 52.7836 23.7251 52.1742 23.2356C51.5648 22.7461 51.0885 22.1109 50.7894 21.3888C50.4902 20.6666 50.3778 19.8807 50.4625 19.1037C50.5473 18.3266 50.8264 17.5835 51.2741 16.9427L51.9754 15.9608C52.1044 15.7803 52.1652 15.5599 52.1469 15.3387C52.1286 15.1176 52.0325 14.9101 51.8756 14.7532L45.2472 8.12393C45.0903 7.96696 44.8829 7.87076 44.6617 7.85249C44.4406 7.83421 44.2201 7.89504 44.0396 8.02414L43.0572 8.72543C42.4166 9.17329 41.6734 9.45249 40.8964 9.53727C40.1193 9.62205 39.3334 9.50967 38.6113 9.2105C37.8891 8.91133 37.254 8.43502 36.7645 7.82556C36.2751 7.2161 35.9471 6.49314 35.8108 5.72344L35.6122 4.53325C35.5756 4.3144 35.4627 4.11561 35.2934 3.9722C35.1241 3.82879 34.9094 3.75006 34.6875 3.75H25.3125C25.0906 3.75006 24.876 3.82878 24.7066 3.97219C24.5373 4.1156 24.4244 4.31439 24.3878 4.53323L24.1891 5.72386C24.0595 6.5001 23.7316 7.22972 23.2373 7.84209C22.743 8.45447 22.0989 8.92887 21.3675 9.21937C20.6494 9.52286 19.8655 9.63686 19.0907 9.55046C18.3159 9.46405 17.5763 9.18014 16.9428 8.72591L15.9604 8.02416C15.78 7.8947 15.5595 7.83366 15.3382 7.85194C15.117 7.87023 14.9095 7.96665 14.7528 8.12395L8.12437 14.7533C7.96746 14.9102 7.87131 15.1176 7.85304 15.3388C7.83476 15.5599 7.89555 15.7803 8.02458 15.9608L8.72583 16.9428C9.1736 17.5835 9.45274 18.3267 9.53748 19.1037C9.62222 19.8808 9.50982 20.6667 9.21066 21.3888C8.91151 22.111 8.43524 22.7461 7.82583 23.2356C7.21641 23.7252 6.49349 24.0532 5.72381 24.1896L4.53363 24.3878C4.31468 24.4242 4.11576 24.5371 3.97226 24.7065C3.82876 24.8758 3.75 25.0905 3.75 25.3125V34.6875C3.75 34.9095 3.82876 35.1242 3.97228 35.2936C4.11579 35.4629 4.31473 35.5758 4.53369 35.6122L5.72388 35.8104C6.50014 35.9402 7.22977 36.2681 7.84214 36.7625C8.45451 37.2569 8.92889 37.901 9.21937 38.6325C9.52266 39.3506 9.63655 40.1345 9.55015 40.9093C9.46375 41.684 9.17995 42.4236 8.72591 43.0572C8.36733 43.6296 7.36921 44.5065 8.12446 45.2467L14.7528 51.8761C15.4961 52.6123 16.321 51.6767 16.9428 51.2745C17.5853 50.8337 18.3277 50.5604 19.1026 50.4793C19.8775 50.3982 20.6604 50.5119 21.3802 50.8101C22.1001 51.1083 22.734 51.5816 23.2245 52.187C23.7151 52.7924 24.0466 53.5107 24.1891 54.2767L24.3879 55.4668C24.4244 55.6856 24.5374 55.8844 24.7067 56.0278C24.876 56.1712 25.0906 56.2499 25.3125 56.25H34.6875C34.9094 56.2499 35.124 56.1712 35.2934 56.0278C35.4627 55.8844 35.5756 55.6856 35.6122 55.4668L35.8108 54.2761C35.9536 53.5102 36.2852 52.7921 36.7758 52.1869C37.2664 51.5816 37.9003 51.1084 38.6201 50.8103C39.3399 50.5121 40.1227 50.3984 40.8975 50.4794C41.6724 50.5604 42.4148 50.8336 43.0573 51.2743C43.6299 51.6327 44.5059 52.6314 45.2472 51.8761L51.8756 45.2467C52.0325 45.0898 52.1287 44.8824 52.147 44.6612C52.1652 44.4401 52.1044 44.2197 51.9754 44.0392L51.2742 43.0572C50.8264 42.4165 50.5473 41.6733 50.4625 40.8963C50.3778 40.1192 50.4902 39.3333 50.7893 38.6112C51.0885 37.889 51.5648 37.2539 52.1742 36.7643C52.7836 36.2748 53.5065 35.9468 54.2762 35.8104L55.4664 35.6122C55.6853 35.5758 55.8842 35.4629 56.0277 35.2935C56.1712 35.1242 56.25 34.9095 56.25 34.6875V25.3125C56.25 25.0905 56.1712 24.8758 56.0277 24.7064C55.8842 24.5371 55.6853 24.4242 55.4663 24.3878ZM54.375 33.8933C49.5773 34.2906 46.8269 40.2622 49.749 44.1468L49.9887 44.4827L44.4828 49.9887C43.5658 49.266 42.4728 48.8008 41.3163 48.641C40.1598 48.4811 38.9816 48.6324 37.903 49.0792C36.8244 49.526 35.8844 50.2522 35.1797 51.183C34.4751 52.1139 34.0312 53.2157 33.8938 54.3751L26.1063 54.375C25.9689 53.2156 25.525 52.1138 24.8203 51.1829C24.1156 50.2521 23.1756 49.5259 22.097 49.0791C21.0183 48.6323 19.8401 48.4811 18.6836 48.641C17.5271 48.8009 16.4341 49.2662 15.5172 49.9888L10.0113 44.4827C10.7339 43.5657 11.199 42.4727 11.3588 41.3162C11.5187 40.1597 11.3674 38.9815 10.9206 37.9029C10.4738 36.8243 9.74764 35.8842 8.81684 35.1795C7.88605 34.4747 6.78425 34.0308 5.62488 33.8933L5.625 26.1067C6.78438 25.9693 7.88617 25.5253 8.81697 24.8205C9.74776 24.1158 10.4739 23.1757 10.9207 22.0971C11.3675 21.0184 11.5187 19.8402 11.3588 18.6837C11.199 17.5272 10.7338 16.4342 10.0112 15.5172L15.5173 10.0113C16.4342 10.734 17.5272 11.1992 18.6837 11.3591C19.8402 11.519 21.0185 11.3677 22.0971 10.9209C23.1757 10.4741 24.1157 9.74789 24.8204 8.81702C25.5251 7.88615 25.9689 6.78429 26.1062 5.62488L33.8937 5.625C34.0311 6.78439 34.475 7.88623 35.1797 8.81706C35.8844 9.74789 36.8244 10.4741 37.903 10.9209C38.9817 11.3677 40.1599 11.5189 41.3164 11.359C42.4729 11.1991 43.5659 10.7338 44.4828 10.0112L49.9887 15.5173C49.2661 16.4343 48.801 17.5273 48.6412 18.6838C48.4813 19.8403 48.6326 21.0185 49.0794 22.0971C49.5262 23.1757 50.2523 24.1158 51.1832 24.8205C52.1139 25.5253 53.2157 25.9692 54.3751 26.1067L54.375 33.8933Z" fill="white"/>
<path d="M22.059 42.7231C9.35885 34.7711 15.0195 15.0575 30.0005 15.0001C33.217 14.9914 36.3498 16.0252 38.9294 17.9467C39.1291 18.0948 39.3795 18.1575 39.6254 18.121C39.8714 18.0846 40.0928 17.9519 40.2409 17.7521C40.389 17.5524 40.4517 17.3021 40.4152 17.0561C40.3787 16.8102 40.246 16.5888 40.0463 16.4407C37.144 14.2787 33.6193 13.1154 30.0003 13.1251C13.1038 13.2524 6.78093 35.2985 21.0667 44.3144C21.2776 44.4403 21.5294 44.4785 21.7682 44.4207C22.0069 44.363 22.2134 44.2139 22.3433 44.0054C22.4733 43.797 22.5163 43.546 22.4631 43.3062C22.41 43.0664 22.2648 42.8571 22.059 42.7231Z" fill="white"/>
<path d="M42.2478 19.7593C42.0481 19.9076 41.9156 20.129 41.8792 20.3749C41.8428 20.6209 41.9055 20.8712 42.0537 21.0708C47.2626 27.8047 45.2827 38.3773 37.941 42.723C37.7721 42.8332 37.6429 42.9947 37.5725 43.1837C37.5021 43.3727 37.4941 43.5793 37.5498 43.7732C37.6054 43.967 37.7217 44.138 37.8816 44.2609C38.0415 44.3838 38.2366 44.4522 38.4383 44.4561C47.1791 40.1262 49.4755 27.5455 43.5587 19.954C43.4854 19.855 43.3934 19.7715 43.2879 19.7082C43.1823 19.6448 43.0653 19.6029 42.9436 19.5849C42.8218 19.5668 42.6977 19.5729 42.5783 19.6028C42.4589 19.6328 42.3466 19.686 42.2478 19.7593Z" fill="white"/>
<path d="M40.2413 32.2244C40.3125 32.053 40.3311 31.8642 40.2947 31.6822C40.2584 31.5002 40.1687 31.3331 40.0371 31.2022L30.653 21.8363C30.4772 21.6608 30.2388 21.5623 29.9904 21.5625C29.742 21.5627 29.5038 21.6615 29.3282 21.8373L19.9624 31.2031C19.8342 31.3353 19.7475 31.5021 19.713 31.683C19.6785 31.8639 19.6977 32.0509 19.7681 32.221C19.8386 32.3911 19.9573 32.5369 20.1096 32.6404C20.2619 32.7439 20.4412 32.8006 20.6253 32.8034H25.3127V45.4968C25.3164 45.743 25.4168 45.9779 25.5922 46.1507C25.7676 46.3236 26.004 46.4205 26.2503 46.4205C26.4965 46.4204 26.7329 46.3236 26.9083 46.1507C27.0837 45.9779 27.1841 45.743 27.1877 45.4967V31.8659C27.1878 31.7428 27.1636 31.6209 27.1164 31.5071C27.0693 31.3934 27.0003 31.29 26.9132 31.203C26.8262 31.1159 26.7228 31.0468 26.609 30.9997C26.4953 30.9526 26.3734 30.9284 26.2502 30.9284H22.8884L29.992 23.8253L37.1083 30.9284H33.7502C33.6271 30.9284 33.5052 30.9526 33.3914 30.9997C33.2777 31.0468 33.1743 31.1159 33.0872 31.203C33.0002 31.29 32.9311 31.3934 32.884 31.5071C32.8369 31.6209 32.8127 31.7428 32.8127 31.8659V45.4968C32.8127 45.7454 32.9115 45.9839 33.0873 46.1597C33.2631 46.3355 33.5016 46.4343 33.7502 46.4343C33.9989 46.4343 34.2373 46.3355 34.4131 46.1597C34.5889 45.9839 34.6877 45.7454 34.6877 45.4968V32.8034H39.3752C39.5607 32.8035 39.742 32.7485 39.8962 32.6454C40.0503 32.5423 40.1705 32.3958 40.2413 32.2244Z" fill="white"/>
</svg>
